<?xml version="1.0" encoding="iso-8859-1"?>
<!-- Generator: Adobe Illustrator 19.0.0, SVG Export Plug-In . SVG Version: 6.00 Build 0)  -->
<svg version="1.1" id="Capa_1" xmlns="http://www.w3.org/2000/svg" xmlns:xlink="http://www.w3.org/1999/xlink" x="0px" y="0px"
	 viewBox="0 0 511.998 511.998" style="enable-background:new 0 0 511.998 511.998;" xml:space="preserve">
<g>
	<g>
		<g>
			<path d="M190.498,407.248L190.498,407.248c-38.573-13.212-72.157-37.954-96.208-70.879c-1.775-2.495-4.751-3.849-7.798-3.546
				c-3.047,0.303-5.698,2.215-6.948,5.011c-1.249,2.796-0.904,6.047,0.904,8.518c26.122,35.782,62.606,62.675,104.516,77.037
				c4.454,1.517,9.296-0.858,10.822-5.31C197.313,413.628,194.947,408.782,190.498,407.248z"/>
			<path d="M69.065,287.464c-1.504-4.467-6.344-6.868-10.81-5.365c-4.467,1.504-6.868,6.344-5.365,10.81
				c2.017,5.983,4.358,11.963,6.958,17.771c1.927,4.301,6.976,6.225,11.277,4.298s6.225-6.976,4.298-11.277
				C73.045,298.393,70.907,292.931,69.065,287.464z"/>
			<path d="M294.199,106.664c0.006,13.491,5.411,26.419,15.008,35.9c3.338,3.296,8.711,3.28,12.029-0.038s3.334-8.69,0.038-12.029
				c-6.401-6.278-10.008-14.867-10.008-23.833s3.607-17.555,10.008-23.833c20.546-20.546,10.938-52.329-8.533-71.8
				c-3.338-3.296-8.711-3.28-12.029,0.038c-3.317,3.317-3.334,8.69-0.038,12.029c13.621,13.621,21.242,34.958,8.533,47.667
				C299.609,80.245,294.205,93.173,294.199,106.664z"/>
			<path d="M200.332,149.331c0.006,13.491,5.411,26.419,15.008,35.9c3.338,3.296,8.711,3.28,12.029-0.038
				c3.317-3.317,3.334-8.69,0.038-12.029c-6.401-6.278-10.008-14.867-10.008-23.833c0-8.966,3.607-17.555,10.008-23.833
				c20.546-20.546,10.938-52.329-8.533-71.8c-3.338-3.296-8.711-3.28-12.029,0.038s-3.334,8.69-0.038,12.029
				c13.621,13.621,21.242,34.958,8.533,47.667C205.743,122.912,200.338,135.84,200.332,149.331z"/>
			<path d="M110.932,98.131c0.006,13.491,5.411,26.419,15.008,35.9c2.151,2.178,5.304,3.037,8.262,2.251s5.269-3.097,6.055-6.055
				c0.786-2.958-0.073-6.111-2.251-8.262c-6.401-6.278-10.008-14.867-10.008-23.833c0-8.966,3.607-17.555,10.008-23.833
				c20.546-20.546,10.938-52.329-8.533-71.8c-3.338-3.296-8.711-3.28-12.029,0.038c-3.317,3.317-3.334,8.69-0.038,12.029
				c13.621,13.621,21.242,34.958,8.533,47.667C116.343,71.712,110.938,84.64,110.932,98.131z"/>
			<path d="M410.793,210.901c1.668-36.455,5.668-85.509,15.264-109.491c11.779-29.458,47.462-50.862,62.258-58.696
				c10.686-5.734,14.979-18.854,9.75-29.795C492.836,1.977,479.931-2.924,468.757,1.79c-33.498,13.665-62.404,36.601-83.325,66.116
				c-21.817,32.723-30.247,95.114-33.508,139.086c-30.576-1.432-62.748-2.194-95.925-2.194
				c-56.706-0.35-113.394,2.166-169.846,7.538c-71.629,7.667-77.621,17.342-77.621,26.596c0,0.198,0.023,0.397,0.029,0.595
				l-0.009,0.001l0.027,0.371c0.016,0.313,0.03,0.625,0.067,0.94c0.145,2.009,0.436,5.931,0.681,8.69
				c5.536,62.75,35.984,120.665,84.538,160.799v50.472c0,33.613,81.563,51.2,162.133,51.2s162.133-17.587,162.133-51.2v-45.946
				c51.666-40.52,82.828-101.768,85.163-167.387c0-0.707,0.083-4.548,0.132-6.758c0.035-0.61,0.039-1.203,0.039-1.775
				C503.465,231.47,503.438,219.128,410.793,210.901z M480.053,238.918c-23.046,5.998-46.63,9.694-70.405,11.034
				c0.06-4.928,0.192-12.569,0.487-21.978C433.748,229.278,457.171,232.945,480.053,238.918z M368.454,216.343l0.003-0.012
				l-0.002-0.011c2.706-42.338,10.231-107.531,31.176-138.947c19.06-26.739,45.337-47.5,75.759-59.858
				c2.757-1.157,5.937,0.039,7.248,2.726s0.297,5.929-2.31,7.391c-20.446,10.825-56.738,33.983-70.121,67.438
				c-15.697,39.247-17.455,133.942-17.65,156.267c-8.184,0.627-16.716,1.19-25.596,1.69
				C367.038,247.338,367.338,233.81,368.454,216.343z M255.999,221.864c32.814,0,64.623,0.752,94.849,2.161
				c-0.758,14.483-0.934,25.31-0.972,29.811c-30.576,1.38-62.039,2.161-93.878,2.161c-119.942,0-200.487-9.079-224.704-17.067
				C55.511,230.944,136.057,221.864,255.999,221.864z M401.065,460.798c0,11.583-51.204,34.133-145.067,34.133
				s-145.067-22.55-145.067-34.133v-37.346c42.473,29.876,93.139,45.9,145.067,45.88c51.436,0.494,101.883-14.143,145.067-42.091
				V460.798z M405.046,403.332c-0.613,0.359-1.178,0.794-1.681,1.295c-42.609,31.532-94.362,48.261-147.366,47.637
				c-116.888,0-215.973-85.962-228.897-197.034c19.315,5.286,39.087,8.733,59.052,10.296c56.452,5.371,113.14,7.887,169.846,7.537
				c34.988,0,69.667-0.837,103.083-2.487c15.2-0.767,29.654-1.721,42.938-2.833c28.264-1.319,56.316-5.564,83.705-12.668
				C481.289,313.763,451.917,367.737,405.046,403.332z"/>
		</g>
	</g>
</g>
<g>
</g>
<g>
</g>
<g>
</g>
<g>
</g>
<g>
</g>
<g>
</g>
<g>
</g>
<g>
</g>
<g>
</g>
<g>
</g>
<g>
</g>
<g>
</g>
<g>
</g>
<g>
</g>
<g>
</g>
</svg>
